<?xml version="1.0" encoding="UTF-8" standalone="no"?>
<!-- Created with Inkscape (http://www.inkscape.org/) -->

<svg
   width="192"
   height="192"
   viewBox="0 0 50.799999 50.799999"
   version="1.1"
   id="svg1"
   xml:space="preserve"
   inkscape:version="1.4.4 (dcaf3e7, 2026-05-05)"
   sodipodi:docname="Shredding Unit.svg"
   xmlns:inkscape="http://www.inkscape.org/namespaces/inkscape"
   xmlns:sodipodi="http://sodipodi.sourceforge.net/DTD/sodipodi-0.dtd"
   xmlns="http://www.w3.org/2000/svg"
   xmlns:svg="http://www.w3.org/2000/svg"><sodipodi:namedview
     id="namedview1"
     pagecolor="#ffffff"
     bordercolor="#000000"
     borderopacity="0.25"
     inkscape:showpageshadow="2"
     inkscape:pageopacity="0.0"
     inkscape:pagecheckerboard="0"
     inkscape:deskcolor="#d1d1d1"
     inkscape:document-units="mm"
     inkscape:zoom="1.9871872"
     inkscape:cx="-53.844952"
     inkscape:cy="79.76098"
     inkscape:window-width="3440"
     inkscape:window-height="1369"
     inkscape:window-x="-8"
     inkscape:window-y="-8"
     inkscape:window-maximized="1"
     inkscape:current-layer="g43"
     showgrid="true"><inkscape:grid
       id="grid1"
       units="px"
       originx="0"
       originy="0"
       spacingx="16.933333"
       spacingy="16.933333"
       empcolor="#0099e5"
       empopacity="0.30196078"
       color="#0099e5"
       opacity="0.14901961"
       empspacing="5"
       enabled="true"
       visible="true" /><inkscape:page
       x="0"
       y="0"
       width="50.799999"
       height="50.799999"
       id="page2"
       margin="0"
       bleed="0" /></sodipodi:namedview><defs
     id="defs1" /><g
     inkscape:groupmode="layer"
     id="g43"
     inkscape:label="粉碎机"
     style="display:inline"><g
       id="g14"
       style="display:inline"><rect
         style="display:inline;fill:#202020;fill-opacity:1;stroke:none;stroke-width:0.934974;stroke-linecap:square;stroke-linejoin:miter;stroke-dasharray:none;stroke-opacity:1;paint-order:stroke fill markers"
         id="rect12"
         width="12.964583"
         height="10.794909"
         x="18.917709"
         y="38.65567" /><rect
         style="display:inline;fill:#cbc9c9;fill-opacity:1;stroke:none;stroke-width:0.886931;stroke-linecap:square;stroke-linejoin:miter;stroke-dasharray:none;stroke-opacity:1;paint-order:stroke fill markers"
         id="rect13"
         width="12.153106"
         height="10.362688"
         x="19.323446"
         y="39.087891" /><rect
         style="fill:#e0dede;fill-opacity:1;stroke:none;stroke-width:0.623503;stroke-linecap:square;stroke-linejoin:miter;stroke-dasharray:none;stroke-opacity:1;paint-order:stroke fill markers"
         id="rect14"
         width="10.45536"
         height="5.9527459"
         x="20.172321"
         y="41.898422" /><path
         style="fill:none;fill-opacity:1;stroke:#828080;stroke-width:0.79375;stroke-linecap:round;stroke-linejoin:miter;stroke-dasharray:none;stroke-opacity:1;paint-order:normal"
         d="m 27.484458,46.050968 -2.084456,-1.507999 -2.084456,1.507999"
         id="path14"
         inkscape:transform-center-x="-1.4391029"
         sodipodi:nodetypes="ccc" /></g><g
       id="g17"
       transform="matrix(0.99998129,0,0,0.99998129,-16.271513,7.3141334e-4)"
       style="display:inline"><rect
         style="display:inline;fill:#202020;fill-opacity:1;stroke:none;stroke-width:0.934974;stroke-linecap:square;stroke-linejoin:miter;stroke-dasharray:none;stroke-opacity:1;paint-order:stroke fill markers"
         id="rect15"
         width="12.964583"
         height="10.794909"
         x="2.6457222"
         y="38.655579"
         transform="matrix(1.0000187,0,0,1.0000187,16.271817,-7.3142702e-4)" /><rect
         style="display:inline;fill:#cbc9c9;fill-opacity:1;stroke:none;stroke-width:0.886948;stroke-linecap:square;stroke-linejoin:miter;stroke-dasharray:none;stroke-opacity:1;paint-order:stroke fill markers"
         id="rect16"
         width="12.153334"
         height="10.362882"
         x="19.323334"
         y="39.087799" /><rect
         style="display:inline;fill:#e0dede;fill-opacity:1;stroke:none;stroke-width:0.623503;stroke-linecap:square;stroke-linejoin:miter;stroke-dasharray:none;stroke-opacity:1;paint-order:stroke fill markers"
         id="rect17"
         width="10.45536"
         height="5.9527459"
         x="20.172321"
         y="41.898422" /><path
         style="fill:none;fill-opacity:1;stroke:#828080;stroke-width:0.79375;stroke-linecap:round;stroke-linejoin:miter;stroke-dasharray:none;stroke-opacity:1;paint-order:normal"
         d="m 27.484458,46.050968 -2.084456,-1.507999 -2.084456,1.507999"
         id="path17"
         inkscape:transform-center-x="-1.4391029"
         sodipodi:nodetypes="ccc" /></g><g
       id="g20"
       transform="matrix(-1,0,0,1,67.071875,0)"
       inkscape:transform-center-x="-16.271874"
       inkscape:transform-center-y="18.069483"
       style="display:inline"><rect
         style="display:inline;fill:#202020;fill-opacity:1;stroke:none;stroke-width:0.934974;stroke-linecap:square;stroke-linejoin:miter;stroke-dasharray:none;stroke-opacity:1;paint-order:stroke fill markers"
         id="rect18"
         width="12.964583"
         height="10.794909"
         x="35.189583"
         y="38.65567"
         transform="matrix(-1,0,0,1,67.071875,0)" /><rect
         style="display:inline;fill:#cbc9c9;fill-opacity:1;stroke:none;stroke-width:0.886931;stroke-linecap:square;stroke-linejoin:miter;stroke-dasharray:none;stroke-opacity:1;paint-order:stroke fill markers"
         id="rect19"
         width="12.153106"
         height="10.362688"
         x="35.595318"
         y="39.087891"
         transform="matrix(-1,0,0,1,67.071875,0)" /><rect
         style="fill:#e0dede;fill-opacity:1;stroke:none;stroke-width:0.623503;stroke-linecap:square;stroke-linejoin:miter;stroke-dasharray:none;stroke-opacity:1;paint-order:stroke fill markers"
         id="rect20"
         width="10.45536"
         height="5.9527459"
         x="20.172321"
         y="41.898422" /><path
         style="fill:none;fill-opacity:1;stroke:#828080;stroke-width:0.79375;stroke-linecap:round;stroke-linejoin:miter;stroke-dasharray:none;stroke-opacity:1;paint-order:normal"
         d="m 27.484458,46.050968 -2.084456,-1.507999 -2.084456,1.507999"
         id="path20"
         inkscape:transform-center-x="-1.4391029"
         sodipodi:nodetypes="ccc" /></g><path
       id="path21"
       style="fill:#828080;fill-opacity:1;stroke:none;stroke-width:1.53325;stroke-linecap:round;stroke-linejoin:miter;stroke-dasharray:none;stroke-opacity:1;paint-order:normal"
       inkscape:transform-center-y="17.71158"
       d="m 16.602604,41.127205 v 3.96875 h 1.322917 v -3.96875 z m 16.271875,0 v 3.96875 h 1.322917 v -3.96875 z" /><path
       id="path22"
       style="fill:#828080;fill-opacity:1;stroke:none;stroke-width:1.53325;stroke-linecap:round;stroke-linejoin:miter;stroke-dasharray:none;stroke-opacity:1;paint-order:normal"
       inkscape:transform-center-y="-17.71158"
       d="m 16.602604,9.6727943 v -3.96875 h 1.322917 v 3.96875 z m 16.271875,0 v -3.96875 h 1.322917 v 3.96875 z" /><g
       id="g24"
       inkscape:transform-center-y="-18.069483"
       transform="matrix(1,0,0,-1,0,50.800001)"><rect
         style="display:inline;fill:#202020;fill-opacity:1;stroke:none;stroke-width:0.934974;stroke-linecap:square;stroke-linejoin:miter;stroke-dasharray:none;stroke-opacity:1;paint-order:stroke fill markers"
         id="rect22"
         width="12.964583"
         height="10.794909"
         x="-31.882288"
         y="-12.144423"
         inkscape:transform-center-x="16.271874"
         inkscape:transform-center-y="-18.653125"
         transform="matrix(-1,0,0,1,0,50.800001)" /><rect
         style="display:inline;fill:#cbc9c9;fill-opacity:1;stroke:none;stroke-width:0.886931;stroke-linecap:square;stroke-linejoin:miter;stroke-dasharray:none;stroke-opacity:1;paint-order:stroke fill markers"
         id="rect23"
         width="12.153106"
         height="10.362688"
         x="-31.476553"
         y="-11.712202"
         inkscape:transform-center-x="16.27187"
         inkscape:transform-center-y="-18.869235"
         transform="matrix(-1,0,0,1,0,50.800001)" /><rect
         style="fill:#e0dede;fill-opacity:1;stroke:none;stroke-width:0.623503;stroke-linecap:square;stroke-linejoin:miter;stroke-dasharray:none;stroke-opacity:1;paint-order:stroke fill markers"
         id="rect24"
         width="10.45536"
         height="5.9527459"
         x="20.172321"
         y="41.898422" /><path
         style="fill:none;fill-opacity:1;stroke:#828080;stroke-width:0.79375;stroke-linecap:round;stroke-linejoin:miter;stroke-dasharray:none;stroke-opacity:1;paint-order:normal"
         d="M 27.484458,44.542971 25.400002,46.05097 23.315546,44.542971"
         id="path24"
         inkscape:transform-center-x="-1.4391029"
         sodipodi:nodetypes="ccc" /></g><g
       id="g27"
       transform="matrix(1,0,0,-1,-16.271875,50.800001)"
       inkscape:transform-center-x="16.271874"
       inkscape:transform-center-y="-18.069483"
       style="display:inline"><rect
         style="display:inline;fill:#202020;fill-opacity:1;stroke:none;stroke-width:0.934974;stroke-linecap:square;stroke-linejoin:miter;stroke-dasharray:none;stroke-opacity:1;paint-order:stroke fill markers"
         id="rect25"
         width="12.964583"
         height="10.794909"
         x="-15.610418"
         y="-12.144328"
         inkscape:transform-center-x="16.271874"
         inkscape:transform-center-y="-18.653125"
         transform="matrix(-1,0,0,1,16.271875,50.800001)" /><rect
         style="display:inline;fill:#cbc9c9;fill-opacity:1;stroke:none;stroke-width:0.886931;stroke-linecap:square;stroke-linejoin:miter;stroke-dasharray:none;stroke-opacity:1;paint-order:stroke fill markers"
         id="rect26"
         width="12.153106"
         height="10.362688"
         x="-15.204683"
         y="-11.712108"
         inkscape:transform-center-x="16.27187"
         inkscape:transform-center-y="-18.869235"
         transform="matrix(-1,0,0,1,16.271875,50.800001)" /><rect
         style="fill:#e0dede;fill-opacity:1;stroke:none;stroke-width:0.623503;stroke-linecap:square;stroke-linejoin:miter;stroke-dasharray:none;stroke-opacity:1;paint-order:stroke fill markers"
         id="rect27"
         width="10.45536"
         height="5.9527459"
         x="20.172321"
         y="41.898422" /><path
         style="fill:none;fill-opacity:1;stroke:#828080;stroke-width:0.79375;stroke-linecap:round;stroke-linejoin:miter;stroke-dasharray:none;stroke-opacity:1;paint-order:normal"
         d="M 27.484458,44.542971 25.400002,46.05097 23.315546,44.542971"
         id="path27"
         inkscape:transform-center-x="-1.4391029"
         sodipodi:nodetypes="ccc" /></g><g
       id="g30"
       transform="rotate(180,33.535938,25.4)"
       inkscape:transform-center-x="-16.271875"
       inkscape:transform-center-y="-18.069484"
       style="display:inline"><rect
         style="display:inline;fill:#202020;fill-opacity:1;stroke:none;stroke-width:0.934974;stroke-linecap:square;stroke-linejoin:miter;stroke-dasharray:none;stroke-opacity:1;paint-order:stroke fill markers"
         id="rect28"
         width="12.964583"
         height="10.794909"
         x="35.189583"
         y="-12.144328"
         inkscape:transform-center-x="-16.271874"
         inkscape:transform-center-y="-18.653125"
         transform="matrix(-1,0,0,1,67.071876,50.8)" /><rect
         style="display:inline;fill:#cbc9c9;fill-opacity:1;stroke:none;stroke-width:0.886931;stroke-linecap:square;stroke-linejoin:miter;stroke-dasharray:none;stroke-opacity:1;paint-order:stroke fill markers"
         id="rect29"
         width="12.153106"
         height="10.362688"
         x="35.595318"
         y="-11.712108"
         inkscape:transform-center-x="-16.27187"
         inkscape:transform-center-y="-18.869235"
         transform="matrix(-1,0,0,1,67.071876,50.8)" /><rect
         style="fill:#e0dede;fill-opacity:1;stroke:none;stroke-width:0.623503;stroke-linecap:square;stroke-linejoin:miter;stroke-dasharray:none;stroke-opacity:1;paint-order:stroke fill markers"
         id="rect30"
         width="10.45536"
         height="5.9527459"
         x="20.172321"
         y="41.898422" /><path
         style="fill:none;fill-opacity:1;stroke:#828080;stroke-width:0.79375;stroke-linecap:round;stroke-linejoin:miter;stroke-dasharray:none;stroke-opacity:1;paint-order:normal"
         d="m 27.484458,44.542969 -2.084456,1.507999 -2.084456,-1.507999"
         id="path30"
         inkscape:transform-center-x="-1.4391029"
         sodipodi:nodetypes="ccc" /></g><path
       id="path41"
       style="display:inline;fill:#202020;fill-opacity:1;stroke:none;stroke-width:0;stroke-linecap:square;stroke-linejoin:miter;stroke-dasharray:none;stroke-opacity:1;paint-order:stroke fill markers"
       d="M 1.3229167,1.3229167 V 49.477083 H 49.477083 V 1.3229167 Z M 1.8520833,3.0427083 H 48.947917 V 47.757292 H 1.8520833 Z" /><rect
       style="display:inline;fill:none;fill-opacity:0.4;stroke:none;stroke-width:0.79375;stroke-linecap:round;stroke-linejoin:miter;stroke-dasharray:none;stroke-opacity:1;paint-order:normal"
       id="rect43"
       width="50.799999"
       height="50.799999"
       x="0"
       y="0" /><path
       id="path52"
       style="display:inline;fill:#202020;stroke-width:1.30667;stroke-linecap:round;fill-opacity:0.40000001"
       d="m 22.323216,12.927224 c 0.863783,1.495299 1.727498,2.990595 2.591282,4.485893 0.863782,-1.495298 1.727498,-2.990594 2.591281,-4.485893 z m -8.506202,0.93881 V 36.061 h 3.699162 V 24.552309 h 4.87076 v -2.198766 h 5.055974 v 2.198766 h 4.86991 V 36.061 h 3.699167 V 13.866034 h -8.044024 l -3.053465,5.287914 -3.053465,-5.287914 z m 11.097484,11.431374 a 1.7399819,1.7399819 0 0 0 -1.739981,1.739983 1.7399819,1.7399819 0 0 0 1.739981,1.739982 1.7399819,1.7399819 0 0 0 1.739982,-1.739982 1.7399819,1.7399819 0 0 0 -1.739982,-1.739983 z m -2.174978,3.803663 a 1.7399819,1.7399819 0 0 0 -1.739982,1.739983 1.7399819,1.7399819 0 0 0 1.739982,1.739981 1.7399819,1.7399819 0 0 0 1.739983,-1.739981 1.7399819,1.7399819 0 0 0 -1.739983,-1.739983 z m 4.349956,0 a 1.7399819,1.7399819 0 0 0 -1.739983,1.739983 1.7399819,1.7399819 0 0 0 1.739983,1.739981 1.7399819,1.7399819 0 0 0 1.739982,-1.739981 1.7399819,1.7399819 0 0 0 -1.739982,-1.739983 z m -6.524084,3.479964 a 1.7399819,1.7399819 0 0 0 -1.739982,1.739982 1.7399819,1.7399819 0 0 0 1.739982,1.739983 1.7399819,1.7399819 0 0 0 1.739983,-1.739983 1.7399819,1.7399819 0 0 0 -1.739983,-1.739982 z m 4.349956,0 a 1.7399819,1.7399819 0 0 0 -1.739983,1.739982 1.7399819,1.7399819 0 0 0 1.739983,1.739983 1.7399819,1.7399819 0 0 0 1.739982,-1.739983 1.7399819,1.7399819 0 0 0 -1.739982,-1.739982 z m 4.349104,0 a 1.7399819,1.7399819 0 0 0 -1.739981,1.739982 1.7399819,1.7399819 0 0 0 1.739981,1.739983 1.7399819,1.7399819 0 0 0 1.739983,-1.739983 1.7399819,1.7399819 0 0 0 -1.739983,-1.739982 z" /><path
       id="rect44"
       style="display:inline;fill:#202020;stroke-width:0.794779;stroke-linecap:round"
       d="m 23.338368,17.458624 c 0.52539,0.909506 1.05074,1.819011 1.576131,2.728516 0.52539,-0.909505 1.05074,-1.81901 1.576131,-2.728516 z m -5.173845,0.571025 V 31.5296 h 2.249992 v -7.00009 h 2.96261 v -1.337386 h 3.075265 v 1.337386 h 2.962093 v 7.00009 h 2.249995 V 18.029649 H 26.77175 l -1.857251,3.216341 -1.857251,-3.216341 z m 6.749976,6.953063 a 1.0583333,1.0583333 0 0 0 -1.058333,1.058334 1.0583333,1.0583333 0 0 0 1.058333,1.058333 1.0583333,1.0583333 0 0 0 1.058333,-1.058333 1.0583333,1.0583333 0 0 0 -1.058333,-1.058334 z m -1.322917,2.313554 a 1.0583333,1.0583333 0 0 0 -1.058333,1.058334 1.0583333,1.0583333 0 0 0 1.058333,1.058333 1.0583333,1.0583333 0 0 0 1.058334,-1.058333 1.0583333,1.0583333 0 0 0 -1.058334,-1.058334 z m 2.645834,0 a 1.0583333,1.0583333 0 0 0 -1.058334,1.058334 1.0583333,1.0583333 0 0 0 1.058334,1.058333 1.0583333,1.0583333 0 0 0 1.058333,-1.058333 1.0583333,1.0583333 0 0 0 -1.058333,-1.058334 z m -3.968234,2.116667 a 1.0583333,1.0583333 0 0 0 -1.058333,1.058333 1.0583333,1.0583333 0 0 0 1.058333,1.058334 1.0583333,1.0583333 0 0 0 1.058334,-1.058334 1.0583333,1.0583333 0 0 0 -1.058334,-1.058333 z m 2.645834,0 a 1.0583333,1.0583333 0 0 0 -1.058334,1.058333 1.0583333,1.0583333 0 0 0 1.058334,1.058334 1.0583333,1.0583333 0 0 0 1.058333,-1.058334 1.0583333,1.0583333 0 0 0 -1.058333,-1.058333 z m 2.645316,0 a 1.0583333,1.0583333 0 0 0 -1.058333,1.058333 1.0583333,1.0583333 0 0 0 1.058333,1.058334 1.0583333,1.0583333 0 0 0 1.058334,-1.058334 1.0583333,1.0583333 0 0 0 -1.058334,-1.058333 z" /></g></svg>
